<svg width="20" height="20" viewBox="0 0 20 20" fill="none" xmlns="http://www.w3.org/2000/svg">
<g clip-path="url(#clip0_767_1815)">
<path d="M4.43155 16.199C4.93849 15.0047 6.12207 14.167 7.5013 14.167H12.5013C13.8805 14.167 15.0641 15.0047 15.5711 16.199M13.3346 7.91699C13.3346 9.75794 11.8423 11.2503 10.0013 11.2503C8.16035 11.2503 6.66797 9.75794 6.66797 7.91699C6.66797 6.07604 8.16035 4.58366 10.0013 4.58366C11.8423 4.58366 13.3346 6.07604 13.3346 7.91699ZM18.3346 10.0003C18.3346 14.6027 14.6037 18.3337 10.0013 18.3337C5.39893 18.3337 1.66797 14.6027 1.66797 10.0003C1.66797 5.39795 5.39893 1.66699 10.0013 1.66699C14.6037 1.66699 18.3346 5.39795 18.3346 10.0003Z" stroke="white" stroke-width="1.5" stroke-linecap="round" stroke-linejoin="round"/>
</g>
<defs>
<clipPath id="clip0_767_1815">
<rect width="20" height="20" fill="white"/>
</clipPath>
</defs>
</svg>
